<svg width="400" height="420" viewBox="0 0 400 420" xmlns="http://www.w3.org/2000/svg">
<defs>
  <linearGradient id="pp1" x1="0" y1="0" x2="1" y2="1">
    <stop offset="0%" stop-color="#7F77DD"/>
    <stop offset="100%" stop-color="#D4537E"/>
  </linearGradient>
  <linearGradient id="pp2" x1="0" y1="0" x2="1" y2="1">
    <stop offset="0%" stop-color="#534AB7"/>
    <stop offset="100%" stop-color="#993556"/>
  </linearGradient>
  <linearGradient id="pp3" x1="0" y1="1" x2="0" y2="0">
    <stop offset="0%" stop-color="#993556"/>
    <stop offset="100%" stop-color="#D4537E"/>
  </linearGradient>
  <linearGradient id="pp4" x1="0" y1="0" x2="1" y2="1">
    <stop offset="0%" stop-color="#AFA9EC"/>
    <stop offset="100%" stop-color="#ED93B1"/>
  </linearGradient>
</defs>
<g transform="translate(200,195)">
  <circle cx="0" cy="0" r="148" fill="none" stroke="url(#pp1)" stroke-width="0.5" opacity="0.12"/>
  <circle cx="0" cy="0" r="132" fill="none" stroke="url(#pp1)" stroke-width="0.8" opacity="0.18"/>
  <circle cx="0" cy="0" r="116" fill="none" stroke="url(#pp2)" stroke-width="1" opacity="0.25"/>
  <g stroke="url(#pp1)" stroke-linecap="round" opacity="0.5" stroke-width="1.5">
    <line x1="0" y1="-116" x2="0" y2="-100"/>
    <line x1="0" y1="100" x2="0" y2="116"/>
    <line x1="-116" y1="0" x2="-100" y2="0"/>
    <line x1="100" y1="0" x2="116" y2="0"/>
    <line x1="82" y1="-82" x2="71" y2="-71"/>
    <line x1="-82" y1="-82" x2="-71" y2="-71"/>
    <line x1="82" y1="82" x2="71" y2="71"/>
    <line x1="-82" y1="82" x2="-71" y2="71"/>
  </g>
  <circle cx="0" cy="0" r="96" fill="none" stroke="url(#pp2)" stroke-width="1.8" opacity="0.6"/>
  <text font-family="sans-serif" font-size="15" font-weight="600" fill="url(#pp3)" x="0" y="-104" text-anchor="middle" dominant-baseline="central">N</text>
  <text font-family="sans-serif" font-size="11" fill="#9c9a92" x="0" y="112" text-anchor="middle" dominant-baseline="central">S</text>
  <text font-family="sans-serif" font-size="11" fill="#9c9a92" x="112" y="0" text-anchor="middle" dominant-baseline="central">E</text>
  <text font-family="sans-serif" font-size="11" fill="#9c9a92" x="-112" y="0" text-anchor="middle" dominant-baseline="central">W</text>
  <path d="M0 -92 L11 0 L0 16 L-11 0Z" fill="url(#pp3)"/>
  <path d="M0 92 L6 0 L0 -16 L-6 0Z" fill="url(#pp4)" opacity="0.3"/>
  <circle cx="0" cy="0" r="40" fill="url(#pp1)" opacity="0.06"/>
  <circle cx="0" cy="0" r="36" fill="white" stroke="url(#pp2)" stroke-width="2"/>
  <circle cx="0" cy="0" r="28" fill="none" stroke="url(#pp1)" stroke-width="0.5" opacity="0.3"/>
  <circle cx="-10" cy="-11" r="8" fill="#534AB7"/>
  <path d="M-20 4 Q-10 14 0 4" fill="#534AB7"/>
  <circle cx="10" cy="-11" r="8" fill="#D4537E"/>
  <path d="M0 4 Q10 14 20 4" fill="#D4537E"/>
  <circle cx="0" cy="-4" r="3.5" fill="white" opacity="0.9"/>
  <circle cx="0" cy="-96" r="5" fill="url(#pp3)"/>
  <circle cx="68" cy="-68" r="3.5" fill="url(#pp1)" opacity="0.7"/>
  <circle cx="96" cy="0" r="3" fill="url(#pp1)" opacity="0.5"/>
</g>
<text font-family="sans-serif" font-size="28" font-weight="500" fill="url(#pp2)" x="200" y="358" text-anchor="middle">MeetDestiny</text>
<text font-family="sans-serif" font-size="10" letter-spacing="3" fill="#D4537E" x="200" y="380" text-anchor="middle">MEET SOMEONE AT EVERY MILE</text>
<text font-family="sans-serif" font-size="8" letter-spacing="2" fill="#aaa" x="200" y="400" text-anchor="middle">meetdestiny.online</text>
</svg>
